<svg width="18" height="18" viewBox="0 0 18 18" fill="none" xmlns="http://www.w3.org/2000/svg">
<path d="M16.5 11.0459C14.1171 12.0094 11.5704 12.5032 9 12.5C6.3475 12.5 3.81667 11.9834 1.5 11.0459M12.3333 5.00002V3.33335C12.3333 2.89133 12.1577 2.4674 11.8452 2.15484C11.5326 1.84228 11.1087 1.66669 10.6667 1.66669H7.33333C6.89131 1.66669 6.46738 1.84228 6.15482 2.15484C5.84226 2.4674 5.66667 2.89133 5.66667 3.33335V5.00002M9 10H9.00833M3.16667 16.6667H14.8333C15.2754 16.6667 15.6993 16.4911 16.0118 16.1785C16.3244 15.866 16.5 15.442 16.5 15V6.66669C16.5 6.22466 16.3244 5.80074 16.0118 5.48818C15.6993 5.17561 15.2754 5.00002 14.8333 5.00002H3.16667C2.72464 5.00002 2.30072 5.17561 1.98816 5.48818C1.67559 5.80074 1.5 6.22466 1.5 6.66669V15C1.5 15.442 1.67559 15.866 1.98816 16.1785C2.30072 16.4911 2.72464 16.6667 3.16667 16.6667Z" stroke="white" stroke-width="1.5" stroke-linecap="round" stroke-linejoin="round"/>
</svg>
