<svg width="18" height="18" viewBox="0 0 18 18" fill="none" xmlns="http://www.w3.org/2000/svg">
<path d="M5.83334 17.3334C5.375 17.3334 4.98278 17.1703 4.65667 16.8442C4.33 16.5175 4.16667 16.125 4.16667 15.6667C4.16667 15.2084 4.33 14.8159 4.65667 14.4892C4.98278 14.1631 5.375 14 5.83334 14C6.29167 14 6.68389 14.1631 7.01 14.4892C7.33667 14.8159 7.5 15.2084 7.5 15.6667C7.5 16.125 7.33667 16.5175 7.01 16.8442C6.68389 17.1703 6.29167 17.3334 5.83334 17.3334ZM14.1667 17.3334C13.7083 17.3334 13.3161 17.1703 12.99 16.8442C12.6633 16.5175 12.5 16.125 12.5 15.6667C12.5 15.2084 12.6633 14.8159 12.99 14.4892C13.3161 14.1631 13.7083 14 14.1667 14C14.625 14 15.0175 14.1631 15.3442 14.4892C15.6703 14.8159 15.8333 15.2084 15.8333 15.6667C15.8333 16.125 15.6703 16.5175 15.3442 16.8442C15.0175 17.1703 14.625 17.3334 14.1667 17.3334ZM5.125 4.00002L7.125 8.16669H12.9583L15.25 4.00002H5.125ZM5.83334 13.1667C5.20834 13.1667 4.73611 12.8922 4.41667 12.3434C4.09722 11.795 4.08334 11.25 4.375 10.7084L5.5 8.66669L2.5 2.33335H1.64584C1.40972 2.33335 1.21528 2.25335 1.0625 2.09335C0.909725 1.93391 0.833336 1.73613 0.833336 1.50002C0.833336 1.26391 0.913336 1.06585 1.07334 0.905854C1.23278 0.746409 1.43056 0.666687 1.66667 0.666687H3.02084C3.17361 0.666687 3.31945 0.708354 3.45834 0.791687C3.59722 0.87502 3.70139 0.993076 3.77084 1.14585L4.33334 2.33335H16.625C17 2.33335 17.2569 2.47224 17.3958 2.75002C17.5347 3.0278 17.5278 3.31946 17.375 3.62502L14.4167 8.95835C14.2639 9.23613 14.0625 9.45141 13.8125 9.60419C13.5625 9.75696 13.2778 9.83335 12.9583 9.83335H6.75L5.83334 11.5H15.0208C15.2569 11.5 15.4514 11.5797 15.6042 11.7392C15.7569 11.8992 15.8333 12.0972 15.8333 12.3334C15.8333 12.5695 15.7533 12.7672 15.5933 12.9267C15.4339 13.0867 15.2361 13.1667 15 13.1667H5.83334Z" fill="white"/>
</svg>
