<svg width="23" height="23" viewBox="0 0 23 23" fill="none" xmlns="http://www.w3.org/2000/svg">
<path d="M11.5 8.625V11.5M11.5 11.5V14.375M11.5 11.5H14.375M11.5 11.5H8.625M20.125 11.5C20.125 12.6327 19.9019 13.7542 19.4685 14.8006C19.035 15.8471 18.3997 16.7979 17.5988 17.5988C16.7979 18.3997 15.8471 19.035 14.8006 19.4685C13.7542 19.9019 12.6327 20.125 11.5 20.125C10.3673 20.125 9.24579 19.9019 8.19936 19.4685C7.15292 19.035 6.20211 18.3997 5.4012 17.5988C4.6003 16.7979 3.96499 15.8471 3.53154 14.8006C3.09809 13.7542 2.875 12.6327 2.875 11.5C2.875 9.21251 3.7837 7.01871 5.4012 5.4012C7.0187 3.7837 9.21251 2.875 11.5 2.875C13.7875 2.875 15.9813 3.7837 17.5988 5.4012C19.2163 7.01871 20.125 9.21251 20.125 11.5Z" stroke="white" stroke-width="1.5" stroke-linecap="round" stroke-linejoin="round"/>
</svg>
